<?xml version="1.0" encoding="utf-8"?>
<!-- Generator: Adobe Illustrator 21.0.1, SVG Export Plug-In . SVG Version: 6.00 Build 0)  -->
<svg version="1.1" id="Layer_1" xmlns="http://www.w3.org/2000/svg" xmlns:xlink="http://www.w3.org/1999/xlink" x="0px" y="0px"
	 viewBox="0 0 100 100" style="enable-background:new 0 0 100 100;" xml:space="preserve">
<style type="text/css">
	.st0{display:none;}
	.st1{display:inline;fill:none;}
	.st2{fill:none;stroke:#212121;stroke-linecap:round;stroke-linejoin:round;stroke-miterlimit:10;}
	.st3{fill:none;stroke:url(#SVGID_1_);stroke-linecap:round;stroke-linejoin:round;stroke-miterlimit:10;}
	.st4{fill:none;stroke:url(#SVGID_2_);stroke-linecap:round;stroke-linejoin:round;stroke-miterlimit:10;}
	.st5{fill:none;stroke:url(#SVGID_3_);stroke-linecap:round;stroke-linejoin:round;stroke-miterlimit:10;}
	.st6{fill:none;stroke:url(#SVGID_4_);stroke-linecap:round;stroke-linejoin:round;stroke-miterlimit:10;}
	.st7{fill:none;stroke:url(#SVGID_5_);stroke-linecap:round;stroke-linejoin:round;stroke-miterlimit:10;}
	.st8{fill:none;stroke:url(#SVGID_6_);stroke-linecap:round;stroke-linejoin:round;stroke-miterlimit:10;}
	.st9{fill:none;stroke:url(#SVGID_7_);stroke-linecap:round;stroke-linejoin:round;stroke-miterlimit:10;}
	.st10{fill:none;stroke:url(#SVGID_8_);stroke-linecap:round;stroke-linejoin:round;stroke-miterlimit:10;}
</style>
<g id="Layer_1_1_">
	<g class="st0">
		<polygon class="st1" points="50,100 75,57 100,100 100,0 75,0 50,43 25,0 0,0 0,100 25,57 		"/>
	</g>
	<path class="st2" d="M50,66.5l8.3-14.2l8.3,14.2v-33h-8.3L50,47.7l-8.3-14.2h-8.3v33l8.3-14.2L50,66.5z"/>
</g>
<g id="Layer_6">
	<linearGradient id="SVGID_1_" gradientUnits="userSpaceOnUse" x1="79.15" y1="34" x2="79.15" y2="-0.5">
		<stop  offset="0" style="stop-color:#212121"/>
		<stop  offset="1" style="stop-color:#DEDEDE"/>
	</linearGradient>
	<polygon class="st3" points="58.3,33.5 75,0 100,0 66.5,33.5 	"/>
	<linearGradient id="SVGID_2_" gradientUnits="userSpaceOnUse" x1="66" y1="50" x2="100.5" y2="50">
		<stop  offset="0" style="stop-color:#212121"/>
		<stop  offset="1" style="stop-color:#DEDEDE"/>
	</linearGradient>
	<polygon class="st4" points="66.5,33.5 100,0 100,100 66.5,66.5 	"/>
	<g>
		<polygon class="st2" points="75,57 58.3,52.3 66.5,66.5 100,100 		"/>
	</g>
	<linearGradient id="SVGID_3_" gradientUnits="userSpaceOnUse" x1="63.9615" y1="24.6938" x2="60.984" y2="22.9748">
		<stop  offset="0" style="stop-color:#212121"/>
		<stop  offset="1" style="stop-color:#DEDEDE"/>
	</linearGradient>
	<polygon class="st5" points="50,43 50,47.7 58.3,33.5 75,0 	"/>
	<linearGradient id="SVGID_4_" gradientUnits="userSpaceOnUse" x1="47.5223" y1="69.7501" x2="62.9766" y2="78.7784">
		<stop  offset="0" style="stop-color:#212121"/>
		<stop  offset="0.1512" style="stop-color:#3F3F3F"/>
		<stop  offset="0.7393" style="stop-color:#B1B1B1"/>
		<stop  offset="1" style="stop-color:#DEDEDE"/>
	</linearGradient>
	<polygon class="st6" points="50,66.5 50,100 75,57 58.3,52.3 	"/>
</g>
<g id="Layer_5">
	<linearGradient id="SVGID_5_" gradientUnits="userSpaceOnUse" x1="20.9" y1="34" x2="20.9" y2="-0.5">
		<stop  offset="0" style="stop-color:#212121"/>
		<stop  offset="1" style="stop-color:#DEDEDE"/>
	</linearGradient>
	<polygon class="st7" points="41.8,33.5 25,0 0,0 33.5,33.5 	"/>
	<linearGradient id="SVGID_6_" gradientUnits="userSpaceOnUse" x1="34" y1="50" x2="-0.5" y2="50">
		<stop  offset="0" style="stop-color:#212121"/>
		<stop  offset="1" style="stop-color:#DEDEDE"/>
	</linearGradient>
	<polygon class="st8" points="33.5,33.5 0,0 0,100 33.5,66.5 	"/>
	<g>
		<polygon class="st2" points="25,57 41.8,52.3 33.5,66.5 0,100 		"/>
	</g>
	<linearGradient id="SVGID_7_" gradientUnits="userSpaceOnUse" x1="36.1135" y1="24.6505" x2="39.016" y2="22.9747">
		<stop  offset="0" style="stop-color:#212121"/>
		<stop  offset="1" style="stop-color:#DEDEDE"/>
	</linearGradient>
	<polygon class="st9" points="50,43 50,47.7 41.8,33.5 25,0 	"/>
	<linearGradient id="SVGID_8_" gradientUnits="userSpaceOnUse" x1="52.549" y1="69.7084" x2="37.0234" y2="78.7784">
		<stop  offset="0" style="stop-color:#212121"/>
		<stop  offset="0.1512" style="stop-color:#3F3F3F"/>
		<stop  offset="0.7393" style="stop-color:#B1B1B1"/>
		<stop  offset="1" style="stop-color:#DEDEDE"/>
	</linearGradient>
	<polygon class="st10" points="50,66.5 50,100 25,57 41.8,52.3 	"/>
</g>
</svg>
