<svg xmlns="http://www.w3.org/2000/svg" viewBox="0 0 781 800" enable-background="new 0 0 781 800"><style type="text/css">.st0{fill:#2121DE;}</style><path class="st0" d="M761.9 0h-171.4v19h-19.1v38.1h-19v38.1h-19.1v38.1h-19v38.1h-19.1v38.1h-19v38.1h-19.1v38.1h-19v38.1h-19.1v38.1h-19v19.1h-19v-19.1h-19.1v-38.1h-19v-38.1h-19.1v-38.1h-19v-38.1h-19.1v-38.1h-19v-38.1h-19.1v-38.1h-19v-38.1h-19.1v-38.1h-19v-19h-190.5v800h19v-38.1h19.1v-38.1h19v-38.1h19.1v-38.1h19v-38.1h19.1v-38.1h19v-38.1h19.1v-38.1h19v-38.1h19.1v-19h19v19h19.1v38.1h19v38.1h19.1v38.1h19v38.1h19.1v38.1h19v38.1h19.1v38.1h19v38.1h19.1v38.1h19v-38.1h19v-38.1h19.1v-38.1h19v-38.1h19.1v-38.1h19v-38.1h19.1v-38.1h19v-38.1h19.1v-38.1h19v-19h19.1v19h19v38.1h19.1v38.1h19v38.1h19.1v38.1h19v38.1h19.1v38.1h19v38.1h19.1v38.1h19v38.1h19.1v-800h-19.1z"/></svg>