<svg xmlns="http://www.w3.org/2000/svg" viewBox="0 0 589 95" enable-background="new 0 0 589 95"><style type="text/css">.st0{fill:#DEDEDE;}</style><path d="M570 0h-570v38h19v19h19v19h19v19h190v-19h19v-19h19v-38h19.1v19h19v19h19v19h208.70000000000002v-19h19v-19h19.1v-38h-18.9zm-437 76h-19v-19h-19v19h-19v-19h-19v-19h-19v-19h19v19h19v-19h19v19h19.1v19h19v19h-.1zm209.1-57h18.9v19h-18.9v-19zm56.9 38v-19h-19v19h-18.9v-19h18.9v-19h19.1v19h18.9v19h-19zM76 38h19v19h-19z"/><g id="Layer_2"><path class="st0" d="M38.1 19h19v19h-19zM76.2 19h19v19h-19zM57.1 38.1h19v19h-19zM95.2 38.1h19v19h-19zM76.2 57.1h19v19h-19zM114.3 57.2h19v19h-19zM342.9 19h19v19h-19zM381 19h19v19h-19zM361.9 38.1h19v19h-19zM400 38.1h19v19h-19z"/></g></svg>