<svg xmlns="http://www.w3.org/2000/svg" viewBox="0 0 589 95"><style>.st0{fill:#dedede}</style><path d="M570 0H0v38h19v19h19v19h19v19h190V76h19V57h19V19h19.1v19h19v19h19v19h208.7V57h19V38h19.1V0H570zM133 76h-19V57H95v19H76V57H57V38H38V19h19v19h19V19h19v19h19.1v19h19v19h-.1zm209.1-57H361v19h-18.9V19zM399 57V38h-19v19h-18.9V38H380V19h19.1v19H418v19h-19zM76 38h19v19H76z"/><path class="st0" d="M38.1 19h19v19h-19zm38.1 0h19v19h-19zM57.1 38.1h19v19h-19zm38.1 0h19v19h-19zm-19 19h19v19h-19zm38.1.1h19v19h-19zM342.9 19h19v19h-19zm38.1 0h19v19h-19zm-19.1 19.1h19v19h-19zm38.1 0h19v19h-19z" id="Layer_2"/></svg>