<svg xmlns="http://www.w3.org/2000/svg" xmlns:xlink="http://www.w3.org/1999/xlink" viewBox="0 0 198.3 276"><style>.st0{display:none}.st1{fill:#dedede}</style><image width="198" height="276" xlink:href="../head.jpg" transform="translate(.345)" overflow="visible" id="Layer_1" class="st0"/><path class="st1" d="M193.1 154.3c0 .3 1.9 25.4-8.3 19.3 0 0-10.3-4.3 0-21.8 0 0 16.8-31-1.5-57.5 0 0 .2 20.3-7.8 16.8 0 0-13.5-4.3-15.5-18.5-.3 0-2.3-24.8 20.8-18 0 0-7.3-13.8-27.5-1.2 0 0-13.8-9.4 1.8-20.3 0 0 12.3-12-4.4-26.4 0 0-8-9.1-22.3-6.3 0 0 19.1 8.3 12 15.8 0 0-14.2 14.5-24-14 0 0-5.1-11.5 12.5-20.8 0 0-18.7-1.8-25.7 12 0 0-3.8 5.3-.4 15.3 0 0 5.4 8.8-7.8 16.4 0 0-8.1 5.4-11.8-7.3 0 0-5.5-19-33-13 0 0 23.9 8.8 16 22 0 0-8.5 15.3-18.8 1.8 0 0-3.3-7.5 0-14.8 0 0-12.3 6.3-6.8 27.3 0 0 6.3 22.6-8.3 13 0 0-12-9.7 0-23.8 0 0-25.7 9-16 39 0 0 13.3 29.8-.8 30.3 0 0-13.3-.4-.7-21 0 0-22 17.1-12.6 37.3 0 0 8 11.5 5.5 28 0 0-6 9.8-2.5 12.8.3.3.5 3.8.5 3.8l1.8.5s2 4.3 0 7.8c0 0 4 3.8 0 8.5-.3.3-3.5 6.3-3 9.3 0 .3 6.8 5.8 6.3 12 .5 0 6.3 1 6.3 1l4.5 5.3s-1.5 2.5-1.3 4.8c.3.3.3 6 .3 6s3.8.5 4.3 8.3c-.5.3-4.5 4-6 5.3-.3.3-.3 2.5-.3 2.5l-1 6s-1.3 2.3-.3 4.5c0 .3 3.5 3.5 3.5 3.5l.5 1.8h2l5.5 3.5 1.8 1.8h3.2s3.5 3.5 9 1.3c.3 0 2.8 3.8 7.3.8 0 0 4.8 1 5-1 0-.3 8.3 2 6.8-2.3-.3-.3 7.3 2 7.3-1.8 0 0 6.3-2.8 10.5-6.5 0-.3.8-4.3.8-4.3s4.5-5.3 5.3-15c0 0 31-15.8 33.3-16.8 0 0 3-3.3 6.3 0 .3 0 7.2 7.7 7.2 7.7s6.5 1.4 9.5 0c0 .1 7.5-1.7 11.3-7.2.3 0 0-4.5 3.8-4.3 0 0 14-8.5 17.5-9.5 0 0 19.3-13.5 17-20.5-.1-.7 13.6-23.2 1.4-39.2zM65.2 107.9s2.5-1 4.3 1.3c0 0 3.7-.1 5.3 0 0 0 2 .5 2.8 2.4 0 0 2.8 4.6-3.8 5.2 0 0-2.7 1.7-6.9-1.2.2 0-6.4-5.3-1.7-7.7zm-27 4c2.5-2 6.2-1.3 6.2-1.3 5.5-3 8-.5 8-.5.5 2.3 2.1 5.8 2.1 5.8-1.6 3.8-5.9 3.3-5.9 3.3-2.7 1.5-9.6-1.1-9.6-1.1-6.1-2.5-.8-6.2-.8-6.2zm-16.5 93.9L20 205l-5.2-.5s-2-5.7-1.7-17.3c.2 0-.7-10.2-.7-10.2s11.3 1.7 15.2 15.7c.2.2 7.7 2 3.3 6.7-4.2 4.6.6-.7-9.2 6.4zm18.1 31.9c-7.3 0-12.8-4-12.8-4 1.2-4.2.3-13.2.3-13.2l-1.8-4.5s-1.8-5-1.8-5.3c0-1.5 4.8 0 4.8 0s10.2 19.2 10 19.2c2.8 4.9 1.3 7.8 1.3 7.8zm5.4-84c-2.3 1.8-10.3 0-10.3 0-2.8-.5-1.3-4.5-1.5-4.5-1.3-1 6-2 6-2.2 3-1.8 7.5-.7 7.7-.7 8.7 3.5-1.8 7.4-1.9 7.4zm36.6 65.8s-3.7 1.8-10 5.3c0 0-7.3 1.8-9.7-1.8l-5.5-1.5-5.6.5s-.5-6.3-2.8-10.3c-.5.3 0-14 0-14l2.8-4.2s1.9 1.9 2.8 1.7c0 0 5.2-1.8 28 9.2 0-.1-1.5 11.1 0 15.1zm19.1-75.5c-3.3 3.3-5 .5-5.2.5-5.3-2.3-9.7 0-9.8-.2-3.8 4.5-7.2-1.7-7.5-2-1.7-6.3 9.3-7.5 9.3-7.5 13.8-3 13.3 9.4 13.2 9.2zm19.6 22.8c-4 1-5.7-3.5-5.7-3.5-1.7-7.3 2.7-7.3 2.7-7.3 8.3 0 5.5 4.5 5.5 4.5 5.7 2.8-2.2 6.3-2.5 6.3zm2.7-53.8c-2.7 3.2-8.8 0-8.8 0-9.5-2-7-6.4-7-6.4 2.4-6.9 14-3.1 14-3.1 8.1 4.5 1.8 9.5 1.8 9.5zm23 11.8c9.5.2 6.8 6.2 6.8 6.2-10.1 2-6.8-6.2-6.8-6.2zm1 36c-11-9 0-11.8 0-11.8 14.8.5 16 8.2 16 8.2 3.6 9.8-15.9 3.8-16 3.6z" id="Layer_4"/></svg>