<svg id="Layer_1" xmlns="http://www.w3.org/2000/svg" viewBox="0 0 100 100"><style>.st0{display:none}.st1{display:inline;fill:none}.st10,.st2,.st3,.st4,.st5,.st6,.st7,.st8,.st9{fill:none;stroke:#212121;stroke-linecap:round;stroke-linejoin:round;stroke-miterlimit:10}.st10,.st3,.st4,.st5,.st6,.st7,.st8,.st9{stroke:url(#SVGID_1_)}.st10,.st4,.st5,.st6,.st7,.st8,.st9{stroke:url(#SVGID_2_)}.st10,.st5,.st6,.st7,.st8,.st9{stroke:url(#SVGID_3_)}.st10,.st6,.st7,.st8,.st9{stroke:url(#SVGID_4_)}.st10,.st7,.st8,.st9{stroke:url(#SVGID_5_)}.st10,.st8,.st9{stroke:url(#SVGID_6_)}.st10,.st9{stroke:url(#SVGID_7_)}.st10{stroke:url(#SVGID_8_)}</style><g id="Layer_1_1_"><g class="st0"><path class="st1" d="M50 100l25-43 25 43V0H75L50 43 25 0H0v100l25-43z"/></g><path class="st2" d="M50 66.5l8.3-14.2 8.3 14.2v-33h-8.3L50 47.7l-8.3-14.2h-8.3v33l8.3-14.2L50 66.5z"/></g><g id="Layer_6"><linearGradient id="SVGID_1_" gradientUnits="userSpaceOnUse" x1="79.15" y1="34" x2="79.15" y2="-.5"><stop offset="0" stop-color="#212121"/><stop offset="1" stop-color="#dedede"/></linearGradient><path class="st3" d="M58.3 33.5L75 0h25L66.5 33.5z"/><linearGradient id="SVGID_2_" gradientUnits="userSpaceOnUse" x1="66" y1="50" x2="100.5" y2="50"><stop offset="0" stop-color="#212121"/><stop offset="1" stop-color="#dedede"/></linearGradient><path class="st4" d="M66.5 33.5L100 0v100L66.5 66.5z"/><path class="st2" d="M75 57l-16.7-4.7 8.2 14.2L100 100z"/><linearGradient id="SVGID_3_" gradientUnits="userSpaceOnUse" x1="63.962" y1="24.694" x2="60.984" y2="22.975"><stop offset="0" stop-color="#212121"/><stop offset="1" stop-color="#dedede"/></linearGradient><path class="st5" d="M50 43v4.7l8.3-14.2L75 0z"/><linearGradient id="SVGID_4_" gradientUnits="userSpaceOnUse" x1="47.522" y1="69.75" x2="62.977" y2="78.778"><stop offset="0" stop-color="#212121"/><stop offset=".151" stop-color="#3f3f3f"/><stop offset=".739" stop-color="#b1b1b1"/><stop offset="1" stop-color="#dedede"/></linearGradient><path class="st6" d="M50 66.5V100l25-43-16.7-4.7z"/></g><g id="Layer_5"><linearGradient id="SVGID_5_" gradientUnits="userSpaceOnUse" x1="20.9" y1="34" x2="20.9" y2="-.5"><stop offset="0" stop-color="#212121"/><stop offset="1" stop-color="#dedede"/></linearGradient><path class="st7" d="M41.8 33.5L25 0H0l33.5 33.5z"/><linearGradient id="SVGID_6_" gradientUnits="userSpaceOnUse" x1="34" y1="50" x2="-.5" y2="50"><stop offset="0" stop-color="#212121"/><stop offset="1" stop-color="#dedede"/></linearGradient><path class="st8" d="M33.5 33.5L0 0v100l33.5-33.5z"/><path class="st2" d="M25 57l16.8-4.7-8.3 14.2L0 100z"/><linearGradient id="SVGID_7_" gradientUnits="userSpaceOnUse" x1="36.114" y1="24.651" x2="39.016" y2="22.975"><stop offset="0" stop-color="#212121"/><stop offset="1" stop-color="#dedede"/></linearGradient><path class="st9" d="M50 43v4.7l-8.2-14.2L25 0z"/><linearGradient id="SVGID_8_" gradientUnits="userSpaceOnUse" x1="52.549" y1="69.708" x2="37.023" y2="78.778"><stop offset="0" stop-color="#212121"/><stop offset=".151" stop-color="#3f3f3f"/><stop offset=".739" stop-color="#b1b1b1"/><stop offset="1" stop-color="#dedede"/></linearGradient><path class="st10" d="M50 66.5V100L25 57l16.8-4.7z"/></g></svg>