<svg xmlns="http://www.w3.org/2000/svg" viewBox="0 0 632 60.4"><path d="M8.5 9.1v8.5H17v8.5h8.5v8.5H17v-8.5H8.5v25.6H0V9.1h8.5zm17.1 17.1v-8.5h8.5V9.1h8.5v42.7h-8.5V26.2h-8.5zM68.3 51.8v-17h-8.5v17.1h-8.5V9.1h25.6v42.7h-8.6zm0-34.1h-8.5v8.5h8.5v-8.5zM93.9 34.8v17.1h-8.5V9.1H111v25.6H93.9zm8.6-17.1H94v8.5h8.5v-8.5zM145.2 9.1v8.5h-8.5v34.2h-8.5V17.7h-8.5V9.1h25.5zM153.7 9.1h8.5v25.6h8.5v8.5h-8.5v8.5h-8.5V9.1zm17.1 25.7v-8.5h8.5V9.1h8.5v42.7h-8.5v-17h-8.5zM213.5 51.8v-17H205v17.1h-8.5V9.1h8.5v17.1h8.5V9.1h8.5v42.7h-8.5zM230.6 51.8V9.1h25.6v8.5h-17.1v25.6h17.1v8.5h-25.6zM264.7 51.8V9.1h25.6v42.7h-25.6zm17.1-34.1h-8.5v25.6h8.5V17.7zM316 51.8v-17h-8.5v17.1H299V9.1h8.5v17.1h8.5V9.1h8.5v42.7H316zM333.1 51.8V9.1h25.6v42.7h-25.6zm17-34.1h-8.5v25.6h8.5V17.7zM367.2 51.8V9.1h25.6v17.1h8.5v25.6h-34.1zm17.1-34.1h-8.5v8.5h8.5v-8.5zm8.5 17.1h-17.1v8.5h17.1v-8.5zM427 51.8v-17h-8.5v17.1H410V9.1h25.6v42.7H427zm0-34.1h-8.5v8.5h8.5v-8.5zM461.2 51.8v-17h-8.5v-8.5h-8.5V9.1h25.6v42.7h-8.6zm-17.1 0v-17h8.5v17.1h-8.5zm17.1-34.1h-8.5v8.5h8.5v-8.5zM529.5 51.8v-17H521v-8.5h-8.5V9.1H538v42.7h-8.5zm-17.1 0v-17h8.5v17.1h-8.5zm17.1-34.1H521v8.5h8.5v-8.5zM555.1 9.1v8.5h8.5v8.5h8.5v8.5h-8.5v-8.5h-8.5v25.6h-8.5V9.1h8.5zm17.1 17.1v-8.5h8.5V9.1h8.5v42.7h-8.5V26.2h-8.5zM614.9 51.8v-17h-8.5v17.1h-8.5V9.1h25.6v42.7h-8.6zm0-34.1h-8.5v8.5h8.5v-8.5z"/></svg>