<svg xmlns="http://www.w3.org/2000/svg" viewBox="0 0 408.8 28"><style>.st0{fill:#dedede}</style><path d="M22.4 5.6h-5.6v5.6h5.6V28H28V0h-5.6zm-16.8 0V0H0v28h5.6V11.2h5.6V5.6zm5.6 5.6h5.6v5.6h-5.6zM33.6 28h5.6V16.8h5.6V28h5.6V0H33.6v28zm5.6-22.4h5.6v5.6h-5.6V5.6zM56 28h5.6V16.8h11.2V0H56v28zm5.6-22.4h5.6v5.6h-5.6V5.6zm16.8 0H84V28h5.6V5.6h5.6V0H78.4zm28-5.6h-5.6v28h5.6v-5.6h5.6v-5.6h-5.6zm11.2 11.2H112v5.6h5.6V28h5.6V0h-5.6zm22.4 0h-5.6V0h-5.6v28h5.6V16.8h5.6V28h5.6V0H140zM151.2 28H168v-5.6h-11.2V5.6H168V0h-16.8zm22.4 0h16.8V0h-16.8v28zm5.6-22.4h5.6v16.8h-5.6V5.6zm28 5.6h-5.6V0H196v28h5.6V16.8h5.6V28h5.6V0h-5.6zM218.4 28h16.8V0h-16.8v28zM224 5.6h5.6v16.8H224V5.6zM257.6 0h-16.8v28h22.4V11.2h-5.6V0zm-11.2 5.6h5.6v5.6h-5.6V5.6zm11.2 16.8h-11.2v-5.6h11.2v5.6zm11.2 5.6h5.6V16.8h5.6V28h5.6V0h-16.8v28zm5.6-22.4h5.6v5.6h-5.6V5.6zm16.8 5.6h5.6V5.6h5.6v5.6h-5.6v5.6h5.6V28h5.6V0h-16.8z" class="st0"/><path d="M291.2 16.8h5.6V28h-5.6zm44.8-5.6h5.6V5.6h5.6v5.6h-5.6v5.6h5.6V28h5.6V0H336z" class="st0"/><path d="M336 16.8h5.6V28H336zm33.6-5.6h5.6v5.6h-5.6z" class="st0"/><path d="M380.8 5.6h-5.6v5.6h5.6V28h5.6V0h-5.6zm-16.8 0V0h-5.6v28h5.6V11.2h5.6V5.6zM392 0v28h5.6V16.8h5.6V28h5.6V0H392zm11.2 11.2h-5.6V5.6h5.6v5.6z" class="st0"/></svg>