<?xml version="1.0" encoding="iso-8859-1"?>
<!--Generator: Adobe Illustrator 19.0.0, SVG Export Plug-In . SVG Version: 6.00 Build 0)-->
<svg xmlns="http://www.w3.org/2000/svg" xmlns:xlink="http://www.w3.org/1999/xlink" id="Layer_1" x="0px" y="0px" style="enable-background:new 0 0 512 512" version="1.1" viewBox="0 0 512 512" xml:space="preserve">
    <g fill="#212121">
        <polygon points="0,61.217 0,116.87 55.652,116.87 55.652,150.261 100.174,150.261 100.174,183.652 144.696,183.652 
			144.696,217.043 189.217,217.043 189.217,250.435 233.739,250.435 233.739,283.826 278.261,283.826 278.261,250.435 
			322.783,250.435 322.783,217.043 367.304,217.043 367.304,183.652 411.826,183.652 411.826,150.261 456.348,150.261 
			456.348,116.87 512,116.87 512,61.217 		"/>
        <polygon points="456.348,150.261 456.348,183.652 411.826,183.652 411.826,217.043 367.304,217.043 367.304,250.435 
			322.783,250.435 322.783,283.826 278.261,283.826 278.261,317.217 233.739,317.217 233.739,283.826 189.217,283.826 
			189.217,250.435 144.696,250.435 144.696,217.043 100.174,217.043 100.174,183.652 55.652,183.652 55.652,150.261 0,150.261 
			0,450.783 512,450.783 512,150.261 		"/>
    </g>
</svg>
