<svg xmlns="http://www.w3.org/2000/svg" viewBox="0 0 5004.5 2524.9"><style>.st0{fill:url(#SVGID_1_)}.st1{fill:#e3e3e3}.st2{fill:url(#SVGID_2_)}.st3{fill:#999}.st4{fill:#c8c8c8}.st5{fill:#fff}</style><g id="Слой_3"><linearGradient id="SVGID_1_" x1="797.6" x2="425.1" y1="2571" y2="458.2" gradientUnits="userSpaceOnUse"><stop offset="0" stop-color="#AFAFAF"/><stop offset=".3" stop-color="#A2A2A2"/><stop offset=".8" stop-color="#7E7E7E"/><stop offset="1" stop-color="#6F6F6F"/></linearGradient><path d="M1075.2 2522L1.5 538.4 840 385l319.5 1756z" class="st0"/><path d="M1116 2338l291.5-1303.7 882 315.7-27-521L840 385z" class="st1"/><linearGradient id="SVGID_2_" x1="2433.3" x2="2698.4" y1="1480.1" y2="-23.2" gradientUnits="userSpaceOnUse"><stop offset="0" stop-color="#AAA"/><stop offset="1" stop-color="#777"/></linearGradient><path d="M2858.5 1555L2839 1.6 2235.7 114l47.8 1234z" class="st2"/><path d="M3062.5 1627L3023 635.5 4996.4 1157 2839 1.6 2787.5 1529z" class="st3"/><path d="M3349.2 1729.6L2970.5 1594l51.5-958.5z" class="st4"/></g><path id="Слой_4" d="M2838.5 1l2158 1156-1974-522 328 1095-1943-695L1075 2522 1.6 538.4 840 385l1422.6 444-27-715 603-113m0-1h-.2l-603 113-.8.3v1l27 713.5L840.2 384h-.5L1.4 537.4l-1.4.3.7 1.2 1073.6 1983.4 1.3 2.4.6-2.7 332-1486 1942 694.8 2 .7-.7-2-327.5-1093L4996.3 1158l8.3 2.2-7.5-4L2839 .2l-.3-.2z" class="st5"/></svg>