<svg xmlns="http://www.w3.org/2000/svg" viewBox="0 0 781 800"><style>.st0{fill:#2121de}</style><path class="st0" d="M761.9 0H590.5v19h-19.1v38.1h-19v38.1h-19.1v38.1h-19v38.1h-19.1v38.1h-19v38.1h-19.1v38.1h-19v38.1H419v38.1h-19V381h-19v-19.1h-19.1v-38.1h-19v-38.1h-19.1v-38.1h-19v-38.1h-19.1v-38.1h-19v-38.1h-19.1V95.2h-19V57.1h-19.1V19h-19V0H0v800h19v-38.1h19.1v-38.1h19v-38.1h19.1v-38.1h19v-38.1h19.1v-38.1h19v-38.1h19.1v-38.1h19v-38.1h19.1v-19h19v19h19.1v38.1h19v38.1h19.1v38.1h19v38.1h19.1v38.1h19v38.1h19.1v38.1h19v38.1H381V800h19v-38.1h19v-38.1h19.1v-38.1h19v-38.1h19.1v-38.1h19v-38.1h19.1v-38.1h19v-38.1h19.1v-38.1h19v-19h19.1v19h19v38.1h19.1v38.1h19v38.1h19.1v38.1h19v38.1h19.1v38.1h19v38.1h19.1v38.1h19V800H781V0h-19.1z"/></svg>