<?xml version="1.0" encoding="utf-8"?>
<!-- Generator: Adobe Illustrator 21.0.1, SVG Export Plug-In . SVG Version: 6.00 Build 0)  -->
<svg version="1.1" xmlns="http://www.w3.org/2000/svg" xmlns:xlink="http://www.w3.org/1999/xlink" x="0px" y="0px"
	 viewBox="0 0 198.3 276" style="enable-background:new 0 0 198.3 276;" xml:space="preserve">
<style type="text/css">
	.st0{display:none;}
	.st1{fill:#DEDEDE;}
</style>
<g id="Layer_1" class="st0">
	
		<image style="display:inline;overflow:visible;" width="198" height="276" xlink:href="../head.jpg"  transform="matrix(1 0 0 1 0.3454 0)">
	</image>
</g>
<g id="Layer_2">
</g>
<g id="Layer_3">
</g>
<g id="Layer_4">
	<path class="st1" d="M193.1,154.3c0,0.3,1.9,25.4-8.3,19.3c0,0-10.3-4.3,0-21.8c0,0,16.8-31-1.5-57.5c0,0,0.2,20.3-7.8,16.8
		c0,0-13.5-4.3-15.5-18.5c-0.3,0-2.3-24.8,20.8-18c0,0-7.3-13.8-27.5-1.2c0,0-13.8-9.4,1.8-20.3c0,0,12.3-12-4.4-26.4
		c0,0-8-9.1-22.3-6.3c0,0,19.1,8.3,12,15.8c0,0-14.2,14.5-24-14c0,0-5.1-11.5,12.5-20.8c0,0-18.7-1.8-25.7,12c0,0-3.8,5.3-0.4,15.3
		c0,0,5.4,8.8-7.8,16.4c0,0-8.1,5.4-11.8-7.3c0,0-5.5-19-33-13c0,0,23.9,8.8,16,22c0,0-8.5,15.3-18.8,1.8c0,0-3.3-7.5,0-14.8
		c0,0-12.3,6.3-6.8,27.3c0,0,6.3,22.6-8.3,13c0,0-12-9.7,0-23.8c0,0-25.7,9-16,39c0,0,13.3,29.8-0.8,30.3c0,0-13.3-0.4-0.7-21
		c0,0-22,17.1-12.6,37.3c0,0,8,11.5,5.5,28c0,0-6,9.8-2.5,12.8c0.3,0.3,0.5,3.8,0.5,3.8l1.8,0.5c0,0,2,4.3,0,7.8c0,0,4,3.8,0,8.5
		c-0.3,0.3-3.5,6.3-3,9.3c0,0.3,6.8,5.8,6.3,12c0.5,0,6.3,1,6.3,1l4.5,5.3c0,0-1.5,2.5-1.3,4.8c0.3,0.3,0.3,6,0.3,6s3.8,0.5,4.3,8.3
		c-0.5,0.3-4.5,4-6,5.3c-0.3,0.3-0.3,2.5-0.3,2.5l-1,6c0,0-1.3,2.3-0.3,4.5c0,0.3,3.5,3.5,3.5,3.5l0.5,1.8h2l5.5,3.5l1.8,1.8h3.2
		c0,0,3.5,3.5,9,1.3c0.3,0,2.8,3.8,7.3,0.8c0,0,4.8,1,5-1c0-0.3,8.3,2,6.8-2.3c-0.3-0.3,7.3,2,7.3-1.8c0,0,6.3-2.8,10.5-6.5
		c0-0.3,0.8-4.3,0.8-4.3s4.5-5.3,5.3-15c0,0,31-15.8,33.3-16.8c0,0,3-3.3,6.3,0c0.3,0,7.2,7.7,7.2,7.7s6.5,1.4,9.5,0
		c0,0.1,7.5-1.7,11.3-7.2c0.3,0,0-4.5,3.8-4.3c0,0,14-8.5,17.5-9.5c0,0,19.3-13.5,17-20.5C191.6,192.8,205.3,170.3,193.1,154.3z
		 M65.2,107.9c0,0,2.5-1,4.3,1.3c0,0,3.7-0.1,5.3,0c0,0,2,0.5,2.8,2.4c0,0,2.8,4.6-3.8,5.2c0,0-2.7,1.7-6.9-1.2
		C67.1,115.6,60.5,110.3,65.2,107.9z M38.2,111.9c2.5-2,6.2-1.3,6.2-1.3c5.5-3,8-0.5,8-0.5c0.5,2.3,2.1,5.8,2.1,5.8
		c-1.6,3.8-5.9,3.3-5.9,3.3c-2.7,1.5-9.6-1.1-9.6-1.1C32.9,115.6,38.2,111.9,38.2,111.9z M21.7,205.8L20,205l-5.2-0.5
		c0,0-2-5.7-1.7-17.3c0.2,0-0.7-10.2-0.7-10.2s11.3,1.7,15.2,15.7c0.2,0.2,7.7,2,3.3,6.7C26.7,204,31.5,198.7,21.7,205.8z
		 M39.8,237.7c-7.3,0-12.8-4-12.8-4c1.2-4.2,0.3-13.2,0.3-13.2l-1.8-4.5c0,0-1.8-5-1.8-5.3c0-1.5,4.8,0,4.8,0s10.2,19.2,10,19.2
		C41.3,234.8,39.8,237.7,39.8,237.7z M45.2,153.7c-2.3,1.8-10.3,0-10.3,0c-2.8-0.5-1.3-4.5-1.5-4.5c-1.3-1,6-2,6-2.2
		c3-1.8,7.5-0.7,7.7-0.7C55.8,149.8,45.3,153.7,45.2,153.7z M81.8,219.5c0,0-3.7,1.8-10,5.3c0,0-7.3,1.8-9.7-1.8l-5.5-1.5L51,222
		c0,0-0.5-6.3-2.8-10.3c-0.5,0.3,0-14,0-14l2.8-4.2c0,0,1.9,1.9,2.8,1.7c0,0,5.2-1.8,28,9.2C81.8,204.3,80.3,215.5,81.8,219.5z
		 M100.9,144c-3.3,3.3-5,0.5-5.2,0.5c-5.3-2.3-9.7,0-9.8-0.2c-3.8,4.5-7.2-1.7-7.5-2c-1.7-6.3,9.3-7.5,9.3-7.5
		C101.5,131.8,101,144.2,100.9,144z M120.5,166.8c-4,1-5.7-3.5-5.7-3.5c-1.7-7.3,2.7-7.3,2.7-7.3c8.3,0,5.5,4.5,5.5,4.5
		C128.7,163.3,120.8,166.8,120.5,166.8z M123.2,113c-2.7,3.2-8.8,0-8.8,0c-9.5-2-7-6.4-7-6.4c2.4-6.9,14-3.1,14-3.1
		C129.5,108,123.2,113,123.2,113z M146.2,124.8c9.5,0.2,6.8,6.2,6.8,6.2C142.9,133,146.2,124.8,146.2,124.8z M147.2,160.8
		c-11-9,0-11.8,0-11.8c14.8,0.5,16,8.2,16,8.2C166.8,167,147.3,161,147.2,160.8z"/>
</g>
</svg>
