<?xml version="1.0" encoding="utf-8"?>
<!-- Generator: Adobe Illustrator 21.0.1, SVG Export Plug-In . SVG Version: 6.00 Build 0)  -->
<svg version="1.1" id="Layer_1" xmlns="http://www.w3.org/2000/svg" xmlns:xlink="http://www.w3.org/1999/xlink" x="0px" y="0px"
	 viewBox="0 0 632 60.4" style="enable-background:new 0 0 632 60.4;" xml:space="preserve">
<g>
	<path d="M8.5,9.1v8.5h8.5v8.5h8.5v8.5h-8.5v-8.5H8.5v25.6H0V9.1H8.5z M25.6,26.2v-8.5h8.5V9.1h8.5v42.7h-8.5V26.2H25.6z"/>
	<path d="M68.3,51.8V34.8h-8.5v17.1h-8.5V9.1h25.6v42.7H68.3z M68.3,17.7h-8.5v8.5h8.5V17.7z"/>
	<path d="M93.9,34.8v17.1h-8.5V9.1H111v25.6H93.9z M102.5,17.7h-8.5v8.5h8.5V17.7z"/>
	<path d="M145.2,9.1v8.5h-8.5v34.2h-8.5V17.7h-8.5V9.1H145.2z"/>
	<path d="M153.7,9.1h8.5v25.6h8.5v8.5h-8.5v8.5h-8.5V9.1z M170.8,34.8v-8.5h8.5V9.1h8.5v42.7h-8.5V34.8H170.8z"/>
	<path d="M213.5,51.8V34.8H205v17.1h-8.5V9.1h8.5v17.1h8.5V9.1h8.5v42.7H213.5z"/>
	<path d="M230.6,51.8V9.1h25.6v8.5h-17.1v25.6h17.1v8.5H230.6z"/>
	<path d="M264.7,51.8V9.1h25.6v42.7H264.7z M281.8,17.7h-8.5v25.6h8.5V17.7z"/>
	<path d="M316,51.8V34.8h-8.5v17.1h-8.5V9.1h8.5v17.1h8.5V9.1h8.5v42.7H316z"/>
	<path d="M333.1,51.8V9.1h25.6v42.7H333.1z M350.1,17.7h-8.5v25.6h8.5V17.7z"/>
	<path d="M367.2,51.8V9.1h25.6v17.1h8.5v25.6H367.2z M384.3,17.7h-8.5v8.5h8.5V17.7z M392.8,34.8h-17.1v8.5h17.1V34.8z"/>
	<path d="M427,51.8V34.8h-8.5v17.1h-8.5V9.1h25.6v42.7H427z M427,17.7h-8.5v8.5h8.5V17.7z"/>
	<path d="M461.2,51.8V34.8h-8.5v-8.5h-8.5V9.1h25.6v42.7H461.2z M444.1,51.8V34.8h8.5v17.1H444.1z M461.2,17.7h-8.5v8.5h8.5V17.7z"
		/>
	<path d="M529.5,51.8V34.8h-8.5v-8.5h-8.5V9.1H538v42.7H529.5z M512.4,51.8V34.8h8.5v17.1H512.4z M529.5,17.7h-8.5v8.5h8.5V17.7z"/>
	<path d="M555.1,9.1v8.5h8.5v8.5h8.5v8.5h-8.5v-8.5h-8.5v25.6h-8.5V9.1H555.1z M572.2,26.2v-8.5h8.5V9.1h8.5v42.7h-8.5V26.2H572.2z"
		/>
	<path d="M614.9,51.8V34.8h-8.5v17.1h-8.5V9.1h25.6v42.7H614.9z M614.9,17.7h-8.5v8.5h8.5V17.7z"/>
</g>
</svg>
