<?xml version="1.0" encoding="iso-8859-1"?>
<!--Generator: Adobe Illustrator 19.0.0, SVG Export Plug-In . SVG Version: 6.00 Build 0)-->
<svg xmlns="http://www.w3.org/2000/svg" xmlns:xlink="http://www.w3.org/1999/xlink" id="Layer_1" x="0px" y="0px" style="enable-background:new 0 0 512 512" version="1.1" viewBox="0 0 512 512" xml:space="preserve">
    <g fill="#212121">
        <polygon points="411.826,345.043 411.826,311.652 322.783,311.652 322.783,345.043 289.391,345.043 289.391,378.435 
			233.739,378.435 233.739,345.043 200.348,345.043 200.348,311.652 166.957,311.652 166.957,278.261 133.565,278.261 
			133.565,222.609 166.957,222.609 166.957,189.217 200.348,189.217 200.348,100.174 166.957,100.174 166.957,66.783 33.391,66.783 
			33.391,100.174 0,100.174 0,278.261 33.391,278.261 33.391,345.043 66.783,345.043 66.783,378.435 100.174,378.435 
			100.174,411.826 133.565,411.826 133.565,445.217 166.957,445.217 166.957,478.609 233.739,478.609 233.739,512 411.826,512 
			411.826,478.609 445.217,478.609 445.217,345.043 		"/>
        <rect width="66.783" height="33.391" x="244.87" y="100.174"/>
        <rect width="33.391" height="33.391" x="311.652" y="133.565"/>
        <rect width="33.391" height="66.783" x="378.435" y="200.348"/>
        <rect width="33.391" height="33.391" x="345.043" y="166.957"/>
        <rect width="111.304" height="33.391" x="200.348"/>
        <rect width="33.391" height="33.391" x="378.435" y="66.783"/>
        <rect width="33.391" height="144.696" x="478.609" y="200.348"/>
        <rect width="33.391" height="33.391" x="411.826" y="100.174"/>
        <rect width="33.391" height="66.783" x="445.217" y="133.565"/>
        <rect width="66.783" height="33.391" x="311.652" y="33.391"/>
    </g>
</svg>
