<?xml version="1.0" encoding="iso-8859-1"?>
<!--Generator: Adobe Illustrator 19.0.0, SVG Export Plug-In . SVG Version: 6.00 Build 0)-->
<svg xmlns="http://www.w3.org/2000/svg" xmlns:xlink="http://www.w3.org/1999/xlink" id="Layer_1" x="0px" y="0px" style="enable-background:new 0 0 512 512" version="1.1" viewBox="0 0 512 512" xml:space="preserve">
    <g fill="#dedede">
        <polygon points="0,72.348 0,139.13 33.391,139.13 33.391,172.522 66.783,172.522 66.783,205.913 100.174,205.913 100.174,239.304 
			211.478,239.304 211.478,205.913 278.261,205.913 278.261,172.522 345.043,172.522 345.043,205.913 278.261,205.913 
			278.261,239.304 211.478,239.304 211.478,272.696 133.565,272.696 133.565,439.652 211.478,439.652 211.478,406.261 
			244.87,406.261 244.87,372.87 278.261,372.87 278.261,339.478 311.652,339.478 311.652,306.087 345.043,306.087 345.043,272.696 
			378.435,272.696 378.435,239.304 411.826,239.304 411.826,205.913 445.217,205.913 445.217,172.522 478.609,172.522 
			478.609,139.13 512,139.13 512,72.348 		"/>
    </g>
</svg>
