<svg width="513" height="282" viewBox="0 0 513 282" fill="none" xmlns="http://www.w3.org/2000/svg">
<path fill-rule="evenodd" clip-rule="evenodd" d="M171.866 134.527L135.761 134.31C131.126 134.282 128.272 129.234 130.637 125.248L187.405 29.5707C189.749 25.6198 186.965 20.6079 182.372 20.5104L158.731 20.0085C156.551 19.9622 154.517 21.1027 153.419 22.9872L74.477 158.516C72.1571 162.499 75.0082 167.502 79.6175 167.536L161.316 168.138C165.97 168.172 168.814 173.261 166.406 177.243L112.049 267.119C109.63 271.117 112.509 276.224 117.183 276.224H144.622C146.762 276.224 148.74 275.084 149.813 273.233L225.015 143.536C227.334 139.536 224.448 134.527 219.824 134.527H171.866Z" fill="white"/>
<path fill-rule="evenodd" clip-rule="evenodd" d="M420.631 122.073C418.371 118.284 412.932 118.148 410.485 121.818L357.993 200.557C355.648 204.075 350.496 204.128 348.078 200.659L292.929 121.531C290.437 117.957 285.086 118.146 282.853 121.889L196.206 267.15C193.821 271.15 196.702 276.224 201.359 276.224H227.392C229.43 276.224 231.329 275.189 232.434 273.477L282.917 195.227C285.189 191.705 290.28 191.539 292.777 194.905L348.184 269.584C350.615 272.86 355.535 272.808 357.896 269.481L410.5 195.357C412.991 191.847 418.259 192.024 420.509 195.695L468.11 273.359C469.2 275.139 471.138 276.224 473.225 276.224H502.015C506.672 276.224 509.554 271.15 507.168 267.15L420.631 122.073Z" fill="white"/>
<path d="M59.7223 279.072C64.3602 279.072 67.2445 274.034 64.8968 270.034L40.2751 228.086C37.9564 224.136 32.2448 224.136 29.9261 228.086L5.30444 270.034C2.95671 274.034 5.84098 279.072 10.4789 279.072H59.7223Z" fill="white"/>
<path d="M347.902 9.11656C350.205 5.08567 356.017 5.08566 358.32 9.11655L393.544 70.7579C395.83 74.7578 392.942 79.7347 388.335 79.7347H317.887C313.28 79.7347 310.392 74.7578 312.678 70.7579L347.902 9.11656Z" fill="white"/>
</svg>
