<svg width="100%" viewBox="0 0 180 136" fill="none" xmlns="http://www.w3.org/2000/svg">
<path fill="currentcolor" fill-rule="evenodd" clip-rule="evenodd" d="M80.7945 47.1428H44L67.6523 7.27924L54.5 7L24.3243 58.806L60.3532 59.0714L37.4137 97H52.0001L80.8517 47.241L80.7945 47.1428Z" />
<path fill="currentcolor" fill-rule="evenodd" clip-rule="evenodd" d="M146 40L124 73L101 40L67 97H81L101 66L124 97L146 66L165 97H180L146 40Z" />
<path fill="currentcolor" d="M24.6522 98L12.3261 77L0 98H24.6522Z" />
<path fill="currentcolor" d="M124 0L140 28H108L124 0Z" />
<path fill="currentcolor" d="M16.9854 121.642H14.0044V116.985H11.1685V132.003H14.5039V135H4.51367V132.003H7.83301V116.985H4.96484V121.642H2V113.972H16.9854V121.642Z" />
<path fill="currentcolor" d="M19.9502 130.682C19.9502 129.801 20.1865 129.033 20.6592 128.377C21.1318 127.711 21.7495 127.158 22.5122 126.718C23.2856 126.277 24.1665 125.95 25.1548 125.735C26.1538 125.509 27.1689 125.396 28.2002 125.396C28.7695 125.396 29.2583 125.407 29.6665 125.429C30.0747 125.45 30.4883 125.482 30.9072 125.525V124.929C30.9072 124.145 30.6011 123.56 29.9888 123.173C29.3872 122.786 28.5923 122.593 27.604 122.593C26.7017 122.593 25.7832 122.722 24.8486 122.979C23.9141 123.227 23.0278 123.592 22.1899 124.075L20.8364 121.465C21.8247 120.896 22.8828 120.45 24.0107 120.127C25.1494 119.794 26.3472 119.628 27.604 119.628C28.4204 119.628 29.2207 119.719 30.0049 119.902C30.7998 120.084 31.5088 120.385 32.1318 120.804C32.7656 121.223 33.2705 121.771 33.6465 122.448C34.0225 123.114 34.2104 123.941 34.2104 124.929V135H30.9072V132.792C30.3809 133.609 29.6021 134.243 28.5708 134.694C27.5503 135.145 26.4492 135.371 25.2676 135.371C24.5371 135.371 23.8442 135.269 23.189 135.064C22.5444 134.871 21.9858 134.576 21.5132 134.178C21.0405 133.781 20.6592 133.292 20.3691 132.712C20.0898 132.121 19.9502 131.444 19.9502 130.682ZM26.1216 132.39C26.7769 132.39 27.3892 132.309 27.9585 132.148C28.5386 131.976 29.0488 131.745 29.4893 131.455C29.9297 131.154 30.2734 130.794 30.5205 130.375C30.7783 129.957 30.9072 129.495 30.9072 128.99V128.426C30.3809 128.34 29.8867 128.292 29.4248 128.281C28.9629 128.27 28.5547 128.265 28.2002 128.265C26.5674 128.265 25.332 128.479 24.4941 128.909C23.667 129.339 23.2534 129.871 23.2534 130.504C23.2534 131.761 24.2095 132.39 26.1216 132.39Z" />
<path fill="currentcolor" d="M53.0146 135H48.6963L43.6689 128.925L42.1543 130.472V135H38.8188V119.982H42.1543V126.347L48.1646 119.982H52.7407L45.812 126.879L53.0146 135Z" />
<path fill="currentcolor" d="M55.9795 130.682C55.9795 129.801 56.2158 129.033 56.6885 128.377C57.1611 127.711 57.7788 127.158 58.5415 126.718C59.3149 126.277 60.1958 125.95 61.1841 125.735C62.1831 125.509 63.1982 125.396 64.2295 125.396C64.7988 125.396 65.2876 125.407 65.6958 125.429C66.104 125.45 66.5176 125.482 66.9365 125.525V124.929C66.9365 124.145 66.6304 123.56 66.0181 123.173C65.4165 122.786 64.6216 122.593 63.6333 122.593C62.731 122.593 61.8125 122.722 60.8779 122.979C59.9434 123.227 59.0571 123.592 58.2192 124.075L56.8657 121.465C57.854 120.896 58.9121 120.45 60.04 120.127C61.1787 119.794 62.3765 119.628 63.6333 119.628C64.4497 119.628 65.25 119.719 66.0342 119.902C66.8291 120.084 67.5381 120.385 68.1611 120.804C68.7949 121.223 69.2998 121.771 69.6758 122.448C70.0518 123.114 70.2397 123.941 70.2397 124.929V135H66.9365V132.792C66.4102 133.609 65.6313 134.243 64.6001 134.694C63.5796 135.145 62.4785 135.371 61.2969 135.371C60.5664 135.371 59.8735 135.269 59.2183 135.064C58.5737 134.871 58.0151 134.576 57.5425 134.178C57.0698 133.781 56.6885 133.292 56.3984 132.712C56.1191 132.121 55.9795 131.444 55.9795 130.682ZM62.1509 132.39C62.8062 132.39 63.4185 132.309 63.9878 132.148C64.5679 131.976 65.0781 131.745 65.5186 131.455C65.959 131.154 66.3027 130.794 66.5498 130.375C66.8076 129.957 66.9365 129.495 66.9365 128.99V128.426C66.4102 128.34 65.916 128.292 65.4541 128.281C64.9922 128.27 64.584 128.265 64.2295 128.265C62.5967 128.265 61.3613 128.479 60.5234 128.909C59.6963 129.339 59.2827 129.871 59.2827 130.504C59.2827 131.761 60.2388 132.39 62.1509 132.39Z" />
<path fill="currentcolor" d="M79.4404 129.199C77.7432 129.178 76.4219 128.786 75.4766 128.023C74.5312 127.26 74.0586 126.122 74.0586 124.607C74.0586 123.092 74.542 121.943 75.5088 121.159C76.4756 120.375 77.8291 119.982 79.5693 119.982H88.2866V135H84.9512V129.199H83.5977L78.3125 135H73.8652L79.4404 129.199ZM77.394 124.575C77.394 125.123 77.5874 125.531 77.9741 125.799C78.3608 126.057 78.8818 126.186 79.5371 126.186H84.9512V122.996H79.5371C78.8818 122.996 78.3608 123.13 77.9741 123.398C77.5874 123.656 77.394 124.048 77.394 124.575Z" />
<path fill="currentcolor" d="M124.316 135H120.98V120.772L118.87 128.329H116.292L114.213 120.772V135H110.877V113.972H114.841L117.581 123.479L120.32 113.972H124.316V135Z" />
<path fill="currentcolor" d="M131.164 128.764C131.325 129.795 131.814 130.655 132.63 131.342C133.458 132.019 134.564 132.357 135.95 132.357C137.035 132.357 137.975 132.191 138.77 131.858C139.575 131.514 140.268 131.063 140.848 130.504L142.556 132.857C141.589 133.824 140.563 134.484 139.479 134.839C138.404 135.193 137.228 135.371 135.95 135.371C134.79 135.371 133.71 135.177 132.711 134.791C131.712 134.404 130.847 133.867 130.117 133.179C129.386 132.481 128.812 131.654 128.393 130.698C127.984 129.742 127.78 128.678 127.78 127.507C127.78 126.369 127.968 125.321 128.344 124.365C128.731 123.398 129.268 122.566 129.956 121.868C130.654 121.159 131.486 120.611 132.453 120.224C133.42 119.827 134.489 119.628 135.66 119.628C136.874 119.628 137.975 119.837 138.963 120.256C139.951 120.665 140.794 121.261 141.493 122.045C142.202 122.829 142.755 123.791 143.152 124.929C143.55 126.057 143.749 127.335 143.749 128.764H131.164ZM139.978 125.832C139.806 124.865 139.307 124.091 138.479 123.511C137.652 122.92 136.712 122.625 135.66 122.625C134.607 122.625 133.662 122.92 132.824 123.511C131.986 124.091 131.481 124.865 131.309 125.832H139.978Z" />
<path fill="currentcolor" d="M161.103 127.636H158.122V122.996H155.286V132.003H158.621V135H148.631V132.003H151.95V122.996H149.082V127.636H146.117V119.982H161.103V127.636Z" />
<path fill="currentcolor" d="M164.067 130.682C164.067 129.801 164.304 129.033 164.776 128.377C165.249 127.711 165.867 127.158 166.629 126.718C167.403 126.277 168.284 125.95 169.272 125.735C170.271 125.509 171.286 125.396 172.317 125.396C172.887 125.396 173.375 125.407 173.784 125.429C174.192 125.45 174.605 125.482 175.024 125.525V124.929C175.024 124.145 174.718 123.56 174.106 123.173C173.504 122.786 172.709 122.593 171.721 122.593C170.819 122.593 169.9 122.722 168.966 122.979C168.031 123.227 167.145 123.592 166.307 124.075L164.954 121.465C165.942 120.896 167 120.45 168.128 120.127C169.267 119.794 170.464 119.628 171.721 119.628C172.538 119.628 173.338 119.719 174.122 119.902C174.917 120.084 175.626 120.385 176.249 120.804C176.883 121.223 177.388 121.771 177.764 122.448C178.14 123.114 178.328 123.941 178.328 124.929V135H175.024V132.792C174.498 133.609 173.719 134.243 172.688 134.694C171.667 135.145 170.566 135.371 169.385 135.371C168.654 135.371 167.961 135.269 167.306 135.064C166.662 134.871 166.103 134.576 165.63 134.178C165.158 133.781 164.776 133.292 164.486 132.712C164.207 132.121 164.067 131.444 164.067 130.682ZM170.239 132.39C170.894 132.39 171.506 132.309 172.076 132.148C172.656 131.976 173.166 131.745 173.606 131.455C174.047 131.154 174.391 130.794 174.638 130.375C174.896 129.957 175.024 129.495 175.024 128.99V128.426C174.498 128.34 174.004 128.292 173.542 128.281C173.08 128.27 172.672 128.265 172.317 128.265C170.685 128.265 169.449 128.479 168.611 128.909C167.784 129.339 167.371 129.871 167.371 130.504C167.371 131.761 168.327 132.39 170.239 132.39Z" />
</svg>
