<svg width="100%" viewBox="0 0 513 384" fill="currentcolor" xmlns="http://www.w3.org/2000/svg">
<path fill-rule="evenodd" clip-rule="evenodd" d="M171.866 134.527L135.761 134.31C131.126 134.282 128.272 129.234 130.637 125.248L187.405 29.5707C189.749 25.6198 186.965 20.6079 182.372 20.5104L158.731 20.0085C156.551 19.9622 154.517 21.1027 153.419 22.9872L74.477 158.516C72.1571 162.499 75.0082 167.502 79.6175 167.536L161.316 168.138C165.97 168.172 168.814 173.261 166.406 177.243L112.049 267.119C109.63 271.117 112.509 276.224 117.183 276.224H144.622C146.762 276.224 148.74 275.084 149.813 273.233L225.015 143.536C227.334 139.536 224.448 134.527 219.824 134.527H171.866Z" />
<path fill-rule="evenodd" clip-rule="evenodd" d="M420.631 122.073C418.371 118.284 412.932 118.148 410.485 121.818L357.993 200.557C355.648 204.075 350.496 204.128 348.078 200.659L292.929 121.531C290.437 117.957 285.086 118.146 282.853 121.889L196.206 267.15C193.821 271.15 196.702 276.224 201.359 276.224H227.392C229.43 276.224 231.329 275.189 232.434 273.477L282.917 195.227C285.189 191.705 290.28 191.539 292.777 194.905L348.184 269.584C350.615 272.86 355.535 272.808 357.896 269.481L410.5 195.357C412.991 191.847 418.259 192.024 420.509 195.695L468.11 273.359C469.2 275.139 471.138 276.224 473.225 276.224H502.015C506.672 276.224 509.554 271.15 507.168 267.15L420.631 122.073Z" />
<path d="M59.7223 279.072C64.3602 279.072 67.2445 274.034 64.8968 270.034L40.2751 228.086C37.9564 224.136 32.2448 224.136 29.9261 228.086L5.30444 270.034C2.95671 274.034 5.84098 279.072 10.4789 279.072H59.7223Z" />
<path d="M347.902 9.11656C350.205 5.08567 356.017 5.08566 358.32 9.11655L393.544 70.7579C395.83 74.7578 392.942 79.7347 388.335 79.7347H317.887C313.28 79.7347 310.392 74.7578 312.678 70.7579L347.902 9.11656Z" />
<path d="M43.5977 343.223C43.5977 343.775 43.15 344.223 42.5977 344.223H35.9251C35.3728 344.223 34.9251 343.775 34.9251 343.223V331.73C34.9251 331.178 34.4774 330.73 33.9251 330.73H27.6743C27.122 330.73 26.6743 331.178 26.6743 331.73V373.242C26.6743 373.795 27.122 374.242 27.6743 374.242H35.3783C35.9306 374.242 36.3783 374.69 36.3783 375.242V381.926C36.3783 382.478 35.9306 382.926 35.3783 382.926H8.31317C7.76088 382.926 7.31317 382.478 7.31317 381.926V375.242C7.31317 374.69 7.76088 374.242 8.31317 374.242H15.9703C16.5226 374.242 16.9703 373.795 16.9703 373.242V331.73C16.9703 331.178 16.5226 330.73 15.9703 330.73H9.62579C9.0735 330.73 8.62579 331.178 8.62579 331.73V343.223C8.62579 343.775 8.17807 344.223 7.62579 344.223H1C0.447715 344.223 0 343.775 0 343.223V323C0 322.448 0.447715 322 1 322H42.5977C43.15 322 43.5977 322.448 43.5977 323V343.223Z" />
<path d="M52.2235 370.414C52.2235 367.862 52.9111 365.637 54.2862 363.738C55.6613 361.808 57.4584 360.205 59.6773 358.929C61.9275 357.653 64.4903 356.704 67.3655 356.081C70.272 355.428 73.2254 355.101 76.2257 355.101C77.8821 355.101 79.3041 355.132 80.4917 355.194C81.3199 355.238 82.1557 355.296 82.999 355.37C83.5893 355.421 84.1014 354.96 84.1014 354.367V353.747C84.1014 351.475 83.2107 349.779 81.4293 348.658C79.6792 347.538 77.3664 346.977 74.4912 346.977C71.8659 346.977 69.1938 347.351 66.4748 348.098C64.0925 348.725 61.8182 349.615 59.6518 350.768C59.1499 351.035 58.5209 350.852 58.2584 350.348L55.2452 344.561C54.9975 344.085 55.1687 343.497 55.6402 343.242C58.2733 341.814 61.0723 340.678 64.0371 339.834C67.3499 338.869 70.8346 338.387 74.4912 338.387C76.8664 338.387 79.1947 338.652 81.4762 339.181C83.7889 339.71 85.8516 340.581 87.6643 341.795C89.5082 343.009 90.9771 344.596 92.0709 346.557C93.1648 348.487 93.7117 350.884 93.7117 353.747V381.926C93.7117 382.478 93.264 382.926 92.7117 382.926H85.1014C84.5492 382.926 84.1014 382.478 84.1014 381.926V379.915C84.1014 378.918 82.6542 378.433 81.9203 379.106C80.6472 380.275 79.1084 381.253 77.3039 382.039C74.3349 383.346 71.1315 384 67.6937 384C65.5685 384 63.5527 383.704 61.6463 383.113C59.7711 382.553 58.1459 381.697 56.7708 380.545C55.3957 379.394 54.2862 377.977 53.4424 376.297C52.6298 374.585 52.2235 372.624 52.2235 370.414ZM70.1783 375.363C72.0847 375.363 73.8661 375.13 75.5225 374.663C77.2102 374.165 78.6947 373.495 79.9761 372.655C81.2574 371.784 82.2575 370.741 82.9763 369.527C83.7264 368.313 84.1014 366.975 84.1014 365.512V364.729C84.1014 364.238 83.7461 363.819 83.2604 363.751C82.0409 363.581 80.8836 363.483 79.7885 363.458C78.4447 363.427 77.2571 363.411 76.2257 363.411C71.4753 363.411 67.8812 364.034 65.4435 365.279C63.037 366.524 61.8338 368.064 61.8338 369.901C61.8338 373.542 64.6153 375.363 70.1783 375.363Z" />
<path d="M146.937 381.261C147.511 381.906 147.053 382.926 146.19 382.926H136.325C136.028 382.926 135.746 382.794 135.556 382.565L121.937 366.176C121.558 365.721 120.869 365.692 120.454 366.114L117.11 369.515C116.926 369.702 116.823 369.954 116.823 370.216V381.926C116.823 382.478 116.375 382.926 115.823 382.926H108.119C107.567 382.926 107.119 382.478 107.119 381.926V340.414C107.119 339.862 107.567 339.414 108.119 339.414H115.823C116.375 339.414 116.823 339.862 116.823 340.414V355.347C116.823 356.251 117.927 356.691 118.549 356.035L134.013 339.726C134.202 339.527 134.465 339.414 134.739 339.414H145.194C146.087 339.414 146.532 340.496 145.898 341.124L128.138 358.729C127.761 359.103 127.742 359.707 128.095 360.104L146.937 381.261Z" />
<path d="M157.046 370.414C157.046 367.862 157.733 365.637 159.108 363.738C160.483 361.808 162.28 360.205 164.499 358.929C166.75 357.653 169.312 356.704 172.188 356.081C175.094 355.428 178.048 355.101 181.048 355.101C182.704 355.101 184.126 355.132 185.314 355.194C186.142 355.238 186.978 355.296 187.821 355.37C188.411 355.421 188.924 354.96 188.924 354.367V353.747C188.924 351.475 188.033 349.779 186.251 348.658C184.501 347.538 182.189 346.977 179.313 346.977C176.688 346.977 174.016 347.351 171.297 348.098C168.915 348.725 166.64 349.615 164.474 350.768C163.972 351.035 163.343 350.852 163.08 350.348L160.067 344.561C159.82 344.085 159.991 343.497 160.462 343.242C163.095 341.814 165.894 340.678 168.859 339.834C172.172 338.869 175.657 338.387 179.313 338.387C181.688 338.387 184.017 338.652 186.298 339.181C188.611 339.71 190.674 340.581 192.486 341.795C194.33 343.009 195.799 344.596 196.893 346.557C197.987 348.487 198.534 350.884 198.534 353.747V381.926C198.534 382.478 198.086 382.926 197.534 382.926H189.924C189.371 382.926 188.924 382.478 188.924 381.926V379.915C188.924 378.918 187.476 378.433 186.742 379.106C185.469 380.275 183.93 381.253 182.126 382.039C179.157 383.346 175.954 384 172.516 384C170.391 384 168.375 383.704 166.468 383.113C164.593 382.553 162.968 381.697 161.593 380.545C160.218 379.394 159.108 377.977 158.264 376.297C157.452 374.585 157.046 372.624 157.046 370.414ZM175 375.363C176.907 375.363 178.688 375.13 180.345 374.663C182.032 374.165 183.517 373.495 184.798 372.655C186.08 371.784 187.08 370.741 187.798 369.527C188.548 368.313 188.924 366.975 188.924 365.512V364.729C188.924 364.238 188.568 363.819 188.083 363.751C186.863 363.581 185.706 363.483 184.611 363.458C183.267 363.427 182.079 363.411 181.048 363.411C176.297 363.411 172.703 364.034 170.266 365.279C167.859 366.524 166.656 368.064 166.656 369.901C166.656 373.542 169.437 375.363 175 375.363Z" />
<path d="M223.695 367.784C224.303 367.154 223.863 366.082 222.991 366.004C219.148 365.661 216.075 364.563 213.77 362.711C211.019 360.501 209.644 357.202 209.644 352.813C209.644 348.425 211.051 345.094 213.863 342.822C216.676 340.55 220.614 339.414 225.677 339.414H250.039C250.591 339.414 251.039 339.862 251.039 340.414V381.926C251.039 382.478 250.591 382.926 250.039 382.926H242.335C241.782 382.926 241.335 382.478 241.335 381.926V367.119C241.335 366.567 240.887 366.119 240.335 366.119H237.837C237.557 366.119 237.289 366.237 237.099 366.444L222.318 382.601C222.128 382.808 221.86 382.926 221.58 382.926H211.436C210.554 382.926 210.104 381.867 210.717 381.232L223.695 367.784ZM219.348 352.72C219.348 354.307 219.911 355.49 221.036 356.268C222.161 357.015 223.677 357.389 225.583 357.389H240.335C240.887 357.389 241.335 356.941 241.335 356.389V349.145C241.335 348.592 240.887 348.145 240.335 348.145H225.583C223.677 348.145 222.161 348.534 221.036 349.312C219.911 350.059 219.348 351.195 219.348 352.72Z" />
<path d="M355.861 381.926C355.861 382.478 355.413 382.926 354.861 382.926H347.157C346.604 382.926 346.157 382.478 346.157 381.926V348.97C346.157 347.808 344.508 347.581 344.194 348.7L340.22 362.868C340.099 363.3 339.706 363.598 339.257 363.598H333.276C332.826 363.598 332.432 363.298 332.312 362.864L328.431 348.813C328.121 347.69 326.467 347.914 326.467 349.079V381.926C326.467 382.478 326.02 382.926 325.467 382.926H317.763C317.211 382.926 316.763 382.478 316.763 381.926V323C316.763 322.448 317.211 322 317.763 322H327.544C327.989 322 328.381 322.294 328.505 322.722L335.305 346.225C335.583 347.188 336.947 347.188 337.226 346.225L344.026 322.722C344.149 322.294 344.541 322 344.986 322H354.861C355.413 322 355.861 322.448 355.861 323V381.926Z" />
<path d="M376.953 364.858C376.339 364.858 375.867 365.408 376.017 366.004C376.641 368.488 377.985 370.597 380.05 372.328C382.457 374.289 385.676 375.27 389.707 375.27C392.864 375.27 395.599 374.787 397.911 373.822C399.874 372.988 401.606 371.936 403.108 370.666C403.571 370.275 404.276 370.336 404.633 370.825L408.423 376.024C408.714 376.423 408.671 376.975 408.312 377.314C405.681 379.792 402.901 381.507 399.974 382.459C396.849 383.486 393.427 384 389.707 384C386.332 384 383.191 383.44 380.285 382.319C377.378 381.199 374.862 379.643 372.737 377.651C370.612 375.628 368.94 373.231 367.721 370.461C366.534 367.691 365.94 364.609 365.94 361.217C365.94 357.918 366.487 354.883 367.58 352.113C368.706 349.312 370.268 346.9 372.268 344.877C374.3 342.822 376.722 341.235 379.535 340.114C382.347 338.963 385.457 338.387 388.864 338.387C392.395 338.387 395.599 338.994 398.474 340.208C401.349 341.391 403.803 343.118 405.834 345.39C407.897 347.662 409.506 350.448 410.663 353.747C411.725 356.75 412.299 360.12 412.386 363.858C412.398 364.41 411.949 364.858 411.397 364.858H376.953ZM400.233 356.361C400.856 356.361 401.33 355.796 401.156 355.199C400.494 352.933 399.131 351.08 397.068 349.639C394.661 347.927 391.926 347.071 388.864 347.071C385.801 347.071 383.051 347.927 380.613 349.639C378.522 351.08 377.144 352.933 376.479 355.199C376.303 355.796 376.778 356.361 377.401 356.361H400.233Z" />
<path d="M462.886 360.59C462.886 361.143 462.438 361.59 461.886 361.59H455.213C454.661 361.59 454.213 361.143 454.213 360.59V349.145C454.213 348.592 453.766 348.145 453.213 348.145H446.963C446.41 348.145 445.963 348.592 445.963 349.145V373.242C445.963 373.795 446.41 374.242 446.963 374.242H454.667C455.219 374.242 455.667 374.69 455.667 375.242V381.926C455.667 382.478 455.219 382.926 454.667 382.926H427.601C427.049 382.926 426.601 382.478 426.601 381.926V375.242C426.601 374.69 427.049 374.242 427.601 374.242H435.259C435.811 374.242 436.259 373.795 436.259 373.242V349.145C436.259 348.592 435.811 348.145 435.259 348.145H428.914C428.362 348.145 427.914 348.592 427.914 349.145V360.59C427.914 361.143 427.466 361.59 426.914 361.59H420.288C419.736 361.59 419.288 361.143 419.288 360.59V340.414C419.288 339.862 419.736 339.414 420.288 339.414H461.886C462.438 339.414 462.886 339.862 462.886 340.414V360.59Z" />
<path d="M471.512 370.414C471.512 367.862 472.199 365.637 473.575 363.738C474.95 361.808 476.747 360.205 478.966 358.929C481.216 357.653 483.779 356.704 486.654 356.081C489.56 355.428 492.514 355.101 495.514 355.101C497.17 355.101 498.592 355.132 499.78 355.194C500.608 355.238 501.444 355.296 502.287 355.37C502.878 355.421 503.39 354.96 503.39 354.367V353.747C503.39 351.475 502.499 349.779 500.718 348.658C498.967 347.538 496.655 346.977 493.78 346.977C491.154 346.977 488.482 347.351 485.763 348.098C483.381 348.725 481.106 349.615 478.94 350.768C478.438 351.035 477.809 350.852 477.547 350.348L474.534 344.561C474.286 344.085 474.457 343.497 474.929 343.242C477.562 341.814 480.361 340.678 483.325 339.834C486.638 338.869 490.123 338.387 493.78 338.387C496.155 338.387 498.483 338.652 500.765 339.181C503.077 339.71 505.14 340.581 506.953 341.795C508.797 343.009 510.265 344.596 511.359 346.557C512.453 348.487 513 350.884 513 353.747V381.926C513 382.478 512.552 382.926 512 382.926H504.39C503.837 382.926 503.39 382.478 503.39 381.926V379.915C503.39 378.918 501.943 378.433 501.209 379.106C499.935 380.275 498.397 381.253 496.592 382.039C493.623 383.346 490.42 384 486.982 384C484.857 384 482.841 383.704 480.935 383.113C479.059 382.553 477.434 381.697 476.059 380.545C474.684 379.394 473.575 377.977 472.731 376.297C471.918 374.585 471.512 372.624 471.512 370.414ZM489.467 375.363C491.373 375.363 493.154 375.13 494.811 374.663C496.499 374.165 497.983 373.495 499.264 372.655C500.546 371.784 501.546 370.741 502.265 369.527C503.015 368.313 503.39 366.975 503.39 365.512V364.729C503.39 364.238 503.034 363.819 502.549 363.751C501.329 363.581 500.172 363.483 499.077 363.458C497.733 363.427 496.545 363.411 495.514 363.411C490.764 363.411 487.17 364.034 484.732 365.279C482.325 366.524 481.122 368.064 481.122 369.901C481.122 373.542 483.904 375.363 489.467 375.363Z" />
</svg>
