<svg xmlns="http://www.w3.org/2000/svg" viewBox="0 0 512 512"><g fill="#212121"><path d="M411.826 345.043v-33.391h-89.043v33.391h-33.392v33.392h-55.652v-33.392h-33.391v-33.391h-33.391v-33.391h-33.392v-55.652h33.392v-33.392h33.391v-89.043h-33.391V66.783H33.391v33.391H0v178.087h33.391v66.782h33.392v33.392h33.391v33.391h33.391v33.391h33.392v33.392h66.782V512h178.087v-33.391h33.391V345.043zM244.87 100.174h66.783v33.391H244.87z"/><path d="M311.652 133.565h33.391v33.391h-33.391zM378.435 200.348h33.391v66.783h-33.391zM345.043 166.957h33.391v33.391h-33.391zM200.348 0h111.304v33.391H200.348zM378.435 66.783h33.391v33.391h-33.391zM478.609 200.348H512v144.696h-33.391zM411.826 100.174h33.391v33.391h-33.391zM445.217 133.565h33.391v66.783h-33.391zM311.652 33.391h66.783v33.391h-66.783z"/></g></svg>