<svg xmlns="http://www.w3.org/2000/svg" viewBox="0 0 512 512"><g fill="#212121"><path d="M311.652 133.565V66.783h-33.391V33.391h-44.522v33.392h-33.391v66.782h-33.391v144.696h178.086V133.565z"/><path d="M478.609 166.957v-66.783h-33.392V66.783h-33.391V33.391h-66.783V0h-66.782v33.391h33.391v33.392h33.391v66.782h33.392V244.87h66.782v-33.392H512v-44.521zM166.957 0v33.391h-66.783v33.392H66.783v33.391H33.391v66.783H0v44.521h66.783v33.392h66.782V133.565h33.392V66.783h33.391V33.391h33.391V0zM445.217 244.87v33.391h-66.782v100.174h-33.392v66.782h-33.391v33.392h-33.391V512h66.782v-33.391h66.783v-33.392h33.391v-33.391h33.392v-66.783H512V244.87z"/><path d="M166.957 311.652v66.783h33.391v66.782h33.391v33.392h44.522v-33.392h33.391v-66.782h33.391v-66.783z"/><path d="M200.348 478.609v-33.392h-33.391v-66.782h-33.392V278.261H66.783V244.87H0v100.173h33.391v66.783h33.392v33.391h33.391v33.392h66.783V512h66.782v-33.391z"/></g></svg>